<svg xmlns="http://www.w3.org/2000/svg" viewBox="0 0 32 32" fill="none">
  <path d="M 28 4.5
           C 26.5 2, 23 1, 19.5 2
           C 15.5 3, 12.5 6, 10.5 10
           C 8.5 15, 8 21, 9.5 26
           C 11 30, 14.5 32, 19 32
           C 23 32, 26 30, 27.5 27
           C 29 24, 29 20, 28 17
           C 27 14.5, 25 12.5, 23 12
           C 21 11.5, 19 12, 18 13.5
           C 17 15, 17.5 17, 19 17.5
           C 20.5 18, 21.5 17, 22 16
           C 22.5 15, 22 14, 21 14
           Z"
        fill="#16395C"/>

  <path d="M 28 4.5 L 31 5 L 28.5 7.5 Z"
        fill="#C7A56D"/>

  <path d="M 14.5 11 C 18 8, 22 7.5, 26 10"
        fill="none" stroke="#C7A56D" stroke-width="1.2" stroke-linecap="round" opacity="0.8"/>
</svg>