<svg xmlns="http://www.w3.org/2000/svg" viewBox="0 0 220 48" fill="none">
  <defs>
    <linearGradient id="wingGradDark" x1="14" y1="14" x2="42" y2="42" gradientUnits="userSpaceOnUse">
      <stop offset="0%" stop-color="#D7B978"/>
      <stop offset="100%" stop-color="#C7A56D"/>
    </linearGradient>
  </defs>

  <g transform="translate(0, 4)">
    <path d="M 30.5 7.2 A 18 18 0 1 1 17.5 7.2"
          fill="none" stroke="#FFFFFF" stroke-width="2" stroke-linecap="round" opacity="0.7"/>

    <path d="M 42 7
             C 40 3, 35 1.5, 30 2.5
             C 24 3.5, 20 7, 17 12
             C 14 18, 13 25, 15 31
             C 17 37, 21 42, 27 44
             C 32 45, 37 43, 40 39
             C 42 36, 43 32, 42 28
             C 41 24, 39 21, 36 19
             C 33 17, 30 17, 27 19
             C 24 21, 23 24, 24 27
             C 25 29, 28 30, 30 29
             C 32 28, 32 26, 31 25
             C 30 24, 28 24, 27 25
             Z"
          fill="url(#wingGradDark)"/>

    <path d="M 22 18 C 27 14, 33 13, 39 16"
          fill="none" stroke="#FFFFFF" stroke-width="1.5" stroke-linecap="round" opacity="0.6"/>

    <path d="M 42 7 L 47 8 L 43 11.5 Z"
          fill="#D7B978"/>
  </g>

  <text x="54" y="24" font-family="'PingFang SC','Microsoft YaHei','Noto Sans SC',sans-serif" font-size="20" font-weight="700" fill="#FFFFFF" letter-spacing="2">鸟链</text>

  <text x="54" y="40" font-family="'Inter','Helvetica Neue','Segoe UI',sans-serif" font-size="10" font-weight="600" fill="#FFFFFF" letter-spacing="3" opacity="0.9">BirdChain</text>
</svg>